<svg xmlns="http://www.w3.org/2000/svg" xmlns:xlink="http://www.w3.org/1999/xlink" zoomAndPan="magnify" viewBox="0 0 600 149.999998" preserveAspectRatio="xMidYMid meet" version="1.0"><defs><g/></defs><g fill="#04ac44" fill-opacity="1"><g transform="translate(71.711309, 100.381034)"><g><path d="M 10.15625 -5.703125 C 4.820312 -10.453125 2.15625 -16.539062 2.15625 -23.96875 C 2.15625 -31.40625 4.929688 -37.507812 10.484375 -42.28125 C 16.046875 -47.0625 22.914062 -49.453125 31.09375 -49.453125 C 39.15625 -49.453125 45.945312 -47.046875 51.46875 -42.234375 C 57 -37.429688 59.765625 -31.34375 59.765625 -23.96875 C 59.765625 -16.601562 57.0625 -10.53125 51.65625 -5.75 C 46.257812 -0.976562 39.40625 1.40625 31.09375 1.40625 C 22.476562 1.40625 15.5 -0.960938 10.15625 -5.703125 Z M 23 -32.125 C 20.84375 -30 19.765625 -27.28125 19.765625 -23.96875 C 19.765625 -20.664062 20.796875 -17.96875 22.859375 -15.875 C 24.921875 -13.78125 27.632812 -12.734375 31 -12.734375 C 34.25 -12.734375 36.921875 -13.796875 39.015625 -15.921875 C 41.109375 -18.046875 42.15625 -20.734375 42.15625 -23.984375 C 42.15625 -27.285156 41.078125 -30 38.921875 -32.125 C 36.765625 -34.25 34.125 -35.3125 31 -35.3125 C 27.820312 -35.3125 25.15625 -34.25 23 -32.125 Z M 23 -32.125 "/></g></g></g><g fill="#04ac44" fill-opacity="1"><g transform="translate(124.812232, 100.381034)"><g><path d="M 21.265625 -48.046875 L 21.265625 -25.203125 C 21.265625 -20.453125 21.984375 -17.078125 23.421875 -15.078125 C 24.859375 -13.078125 27.289062 -12.078125 30.71875 -12.078125 C 34.15625 -12.078125 36.59375 -13.078125 38.03125 -15.078125 C 39.46875 -17.078125 40.1875 -20.453125 40.1875 -25.203125 L 40.1875 -48.046875 L 56.765625 -48.046875 L 56.765625 -21.171875 C 56.765625 -13.179688 54.6875 -7.421875 50.53125 -3.890625 C 46.382812 -0.359375 39.78125 1.40625 30.71875 1.40625 C 21.664062 1.40625 15.0625 -0.359375 10.90625 -3.890625 C 6.757812 -7.421875 4.6875 -13.179688 4.6875 -21.171875 L 4.6875 -48.046875 Z M 21.265625 -48.046875 "/></g></g></g><g fill="#04ac44" fill-opacity="1"><g transform="translate(177.444877, 100.381034)"><g><path d="M 8.4375 -48.046875 L 8.4375 -65.9375 L 25.015625 -65.9375 L 25.015625 -48.046875 L 35.125 -48.046875 L 35.125 -35.40625 L 25.015625 -35.40625 L 25.015625 -20.140625 C 25.015625 -15.703125 26.257812 -13.484375 28.75 -13.484375 C 29.375 -13.484375 30.03125 -13.609375 30.71875 -13.859375 C 31.40625 -14.109375 31.9375 -14.359375 32.3125 -14.609375 L 32.875 -14.984375 L 37 -1.59375 C 33.4375 0.40625 29.378906 1.40625 24.828125 1.40625 C 21.703125 1.40625 19.015625 0.859375 16.765625 -0.234375 C 14.515625 -1.328125 12.8125 -2.796875 11.65625 -4.640625 C 10.5 -6.484375 9.671875 -8.414062 9.171875 -10.4375 C 8.679688 -12.46875 8.4375 -14.640625 8.4375 -16.953125 L 8.4375 -35.40625 L 1.5 -35.40625 L 1.5 -48.046875 Z M 8.4375 -48.046875 "/></g></g></g><g fill="#04ac44" fill-opacity="1"><g transform="translate(205.633042, 100.381034)"><g><path d="M 26.515625 -49.453125 C 29.253906 -49.453125 31.96875 -49.140625 34.65625 -48.515625 C 37.34375 -47.890625 39.34375 -47.269531 40.65625 -46.65625 L 42.625 -45.71875 L 37.1875 -34.84375 C 33.4375 -36.84375 29.878906 -37.84375 26.515625 -37.84375 C 24.640625 -37.84375 23.3125 -37.640625 22.53125 -37.234375 C 21.75 -36.828125 21.359375 -36.0625 21.359375 -34.9375 C 21.359375 -34.6875 21.390625 -34.4375 21.453125 -34.1875 C 21.515625 -33.9375 21.640625 -33.703125 21.828125 -33.484375 C 22.015625 -33.265625 22.1875 -33.078125 22.34375 -32.921875 C 22.5 -32.765625 22.765625 -32.59375 23.140625 -32.40625 C 23.515625 -32.21875 23.8125 -32.078125 24.03125 -31.984375 C 24.25 -31.890625 24.609375 -31.75 25.109375 -31.5625 C 25.609375 -31.375 25.984375 -31.234375 26.234375 -31.140625 C 26.484375 -31.046875 26.898438 -30.90625 27.484375 -30.71875 C 28.078125 -30.53125 28.53125 -30.40625 28.84375 -30.34375 C 30.78125 -29.78125 32.46875 -29.15625 33.90625 -28.46875 C 35.34375 -27.789062 36.859375 -26.859375 38.453125 -25.671875 C 40.046875 -24.484375 41.28125 -22.984375 42.15625 -21.171875 C 43.03125 -19.359375 43.46875 -17.296875 43.46875 -14.984375 C 43.46875 -4.054688 35.878906 1.40625 20.703125 1.40625 C 17.265625 1.40625 14 0.875 10.90625 -0.1875 C 7.820312 -1.25 5.59375 -2.3125 4.21875 -3.375 L 2.15625 -5.0625 L 8.90625 -16.390625 C 9.394531 -15.953125 10.046875 -15.4375 10.859375 -14.84375 C 11.671875 -14.25 13.140625 -13.4375 15.265625 -12.40625 C 17.390625 -11.375 19.234375 -10.859375 20.796875 -10.859375 C 24.234375 -10.859375 25.953125 -12.015625 25.953125 -14.328125 C 25.953125 -15.390625 25.515625 -16.21875 24.640625 -16.8125 C 23.765625 -17.40625 22.28125 -18.078125 20.1875 -18.828125 C 18.09375 -19.578125 16.453125 -20.265625 15.265625 -20.890625 C 12.265625 -22.453125 9.890625 -24.210938 8.140625 -26.171875 C 6.398438 -28.140625 5.53125 -30.75 5.53125 -34 C 5.53125 -38.875 7.414062 -42.664062 11.1875 -45.375 C 14.96875 -48.09375 20.078125 -49.453125 26.515625 -49.453125 Z M 26.515625 -49.453125 "/></g></g></g><g fill="#04ac44" fill-opacity="1"><g transform="translate(242.905946, 100.381034)"><g><path d="M 10.15625 -5.703125 C 4.820312 -10.453125 2.15625 -16.539062 2.15625 -23.96875 C 2.15625 -31.40625 4.929688 -37.507812 10.484375 -42.28125 C 16.046875 -47.0625 22.914062 -49.453125 31.09375 -49.453125 C 39.15625 -49.453125 45.945312 -47.046875 51.46875 -42.234375 C 57 -37.429688 59.765625 -31.34375 59.765625 -23.96875 C 59.765625 -16.601562 57.0625 -10.53125 51.65625 -5.75 C 46.257812 -0.976562 39.40625 1.40625 31.09375 1.40625 C 22.476562 1.40625 15.5 -0.960938 10.15625 -5.703125 Z M 23 -32.125 C 20.84375 -30 19.765625 -27.28125 19.765625 -23.96875 C 19.765625 -20.664062 20.796875 -17.96875 22.859375 -15.875 C 24.921875 -13.78125 27.632812 -12.734375 31 -12.734375 C 34.25 -12.734375 36.921875 -13.796875 39.015625 -15.921875 C 41.109375 -18.046875 42.15625 -20.734375 42.15625 -23.984375 C 42.15625 -27.285156 41.078125 -30 38.921875 -32.125 C 36.765625 -34.25 34.125 -35.3125 31 -35.3125 C 27.820312 -35.3125 25.15625 -34.25 23 -32.125 Z M 23 -32.125 "/></g></g></g><g fill="#04ac44" fill-opacity="1"><g transform="translate(296.006881, 100.381034)"><g><path d="M 21.265625 -48.046875 L 21.265625 -25.203125 C 21.265625 -20.453125 21.984375 -17.078125 23.421875 -15.078125 C 24.859375 -13.078125 27.289062 -12.078125 30.71875 -12.078125 C 34.15625 -12.078125 36.59375 -13.078125 38.03125 -15.078125 C 39.46875 -17.078125 40.1875 -20.453125 40.1875 -25.203125 L 40.1875 -48.046875 L 56.765625 -48.046875 L 56.765625 -21.171875 C 56.765625 -13.179688 54.6875 -7.421875 50.53125 -3.890625 C 46.382812 -0.359375 39.78125 1.40625 30.71875 1.40625 C 21.664062 1.40625 15.0625 -0.359375 10.90625 -3.890625 C 6.757812 -7.421875 4.6875 -13.179688 4.6875 -21.171875 L 4.6875 -48.046875 Z M 21.265625 -48.046875 "/></g></g></g><g fill="#04ac44" fill-opacity="1"><g transform="translate(348.639516, 100.381034)"><g><path d="M 5.625 0 L 5.625 -48.046875 L 22.203125 -48.046875 L 22.203125 -41.125 L 22.390625 -41.125 C 22.515625 -41.375 22.71875 -41.6875 23 -42.0625 C 23.28125 -42.4375 23.890625 -43.09375 24.828125 -44.03125 C 25.765625 -44.96875 26.757812 -45.804688 27.8125 -46.546875 C 28.875 -47.296875 30.25 -47.96875 31.9375 -48.5625 C 33.625 -49.15625 35.34375 -49.453125 37.09375 -49.453125 C 38.90625 -49.453125 40.6875 -49.203125 42.4375 -48.703125 C 44.1875 -48.203125 45.46875 -47.703125 46.28125 -47.203125 L 47.578125 -46.46875 L 40.65625 -32.40625 C 38.59375 -34.15625 35.71875 -35.03125 32.03125 -35.03125 C 30.03125 -35.03125 28.3125 -34.59375 26.875 -33.71875 C 25.445312 -32.84375 24.4375 -31.78125 23.84375 -30.53125 C 23.25 -29.28125 22.828125 -28.21875 22.578125 -27.34375 C 22.328125 -26.476562 22.203125 -25.796875 22.203125 -25.296875 L 22.203125 0 Z M 5.625 0 "/></g></g></g><g fill="#04ac44" fill-opacity="1"><g transform="translate(386.474348, 100.381034)"><g><path d="M 31.1875 -35.875 C 28.070312 -35.875 25.390625 -34.71875 23.140625 -32.40625 C 20.890625 -30.09375 19.765625 -27.316406 19.765625 -24.078125 C 19.765625 -20.765625 20.890625 -17.953125 23.140625 -15.640625 C 25.390625 -13.328125 28.070312 -12.171875 31.1875 -12.171875 C 32.6875 -12.171875 34.109375 -12.359375 35.453125 -12.734375 C 36.796875 -13.109375 37.78125 -13.484375 38.40625 -13.859375 L 39.25 -14.421875 L 44.875 -2.90625 C 44.4375 -2.59375 43.828125 -2.203125 43.046875 -1.734375 C 42.265625 -1.265625 40.484375 -0.625 37.703125 0.1875 C 34.921875 1 31.9375 1.40625 28.75 1.40625 C 21.695312 1.40625 15.5 -1.070312 10.15625 -6.03125 C 4.820312 -11 2.15625 -16.953125 2.15625 -23.890625 C 2.15625 -30.878906 4.820312 -36.882812 10.15625 -41.90625 C 15.5 -46.9375 21.695312 -49.453125 28.75 -49.453125 C 31.9375 -49.453125 34.875 -49.078125 37.5625 -48.328125 C 40.25 -47.578125 42.15625 -46.832031 43.28125 -46.09375 L 44.875 -44.96875 L 39.25 -33.625 C 37.1875 -35.125 34.5 -35.875 31.1875 -35.875 Z M 31.1875 -35.875 "/></g></g></g><g fill="#04ac44" fill-opacity="1"><g transform="translate(423.653602, 100.381034)"><g><path d="M 8.890625 -5.9375 C 4.398438 -10.84375 2.15625 -16.851562 2.15625 -23.96875 C 2.15625 -31.09375 4.398438 -37.117188 8.890625 -42.046875 C 13.390625 -46.984375 19.109375 -49.453125 26.046875 -49.453125 C 32.410156 -49.453125 37.65625 -47.457031 41.78125 -43.46875 L 41.78125 -80.5625 L 58.359375 -80.5625 L 58.359375 0 L 41.96875 0 L 41.96875 -5.4375 L 41.78125 -5.4375 C 37.65625 -0.875 32.410156 1.40625 26.046875 1.40625 C 19.109375 1.40625 13.390625 -1.039062 8.890625 -5.9375 Z M 23 -32.125 C 20.84375 -30 19.765625 -27.28125 19.765625 -23.96875 C 19.765625 -20.664062 20.796875 -17.96875 22.859375 -15.875 C 24.921875 -13.78125 27.632812 -12.734375 31 -12.734375 C 34.25 -12.734375 36.921875 -13.796875 39.015625 -15.921875 C 41.109375 -18.046875 42.15625 -20.734375 42.15625 -23.984375 C 42.15625 -27.285156 41.078125 -30 38.921875 -32.125 C 36.765625 -34.25 34.125 -35.3125 31 -35.3125 C 27.820312 -35.3125 25.15625 -34.25 23 -32.125 Z M 23 -32.125 "/></g></g></g><g fill="#04ac44" fill-opacity="1"><g transform="translate(478.814971, 100.381034)"><g/></g></g><g fill="#04ac44" fill-opacity="1"><g transform="translate(495.576994, 100.381034)"><g><path d="M 16.296875 -20.046875 C 19.296875 -20.046875 21.84375 -19 23.9375 -16.90625 C 26.03125 -14.8125 27.078125 -12.269531 27.078125 -9.28125 C 27.078125 -6.34375 26.03125 -3.828125 23.9375 -1.734375 C 21.84375 0.359375 19.296875 1.40625 16.296875 1.40625 C 13.359375 1.40625 10.84375 0.359375 8.75 -1.734375 C 6.664062 -3.828125 5.625 -6.34375 5.625 -9.28125 C 5.625 -12.269531 6.664062 -14.8125 8.75 -16.90625 C 10.84375 -19 13.359375 -20.046875 16.296875 -20.046875 Z M 16.296875 -20.046875 "/></g></g></g><g fill="#000000" fill-opacity="1"><g transform="translate(241.027159, 129.853076)"><g><path d="M 4.15625 -8.40625 L 4.15625 -2.59375 C 4.15625 -1.945312 4.445312 -1.625 5.03125 -1.625 C 5.125 -1.625 5.25 -1.644531 5.40625 -1.6875 C 5.5625 -1.726562 5.679688 -1.75 5.765625 -1.75 C 5.941406 -1.75 6.085938 -1.675781 6.203125 -1.53125 C 6.316406 -1.394531 6.375 -1.21875 6.375 -1 C 6.375 -0.71875 6.21875 -0.476562 5.90625 -0.28125 C 5.59375 -0.09375 5.242188 0 4.859375 0 C 4.429688 0 4.035156 -0.0390625 3.671875 -0.125 C 3.316406 -0.21875 3 -0.453125 2.71875 -0.828125 C 2.4375 -1.203125 2.296875 -1.765625 2.296875 -2.515625 L 2.296875 -8.40625 L 1.171875 -8.40625 C 0.921875 -8.40625 0.710938 -8.484375 0.546875 -8.640625 C 0.390625 -8.804688 0.3125 -9.015625 0.3125 -9.265625 C 0.3125 -9.515625 0.390625 -9.710938 0.546875 -9.859375 C 0.710938 -10.015625 0.921875 -10.09375 1.171875 -10.09375 L 2.296875 -10.09375 L 2.296875 -11.734375 C 2.296875 -11.992188 2.382812 -12.210938 2.5625 -12.390625 C 2.738281 -12.578125 2.960938 -12.671875 3.234375 -12.671875 C 3.492188 -12.671875 3.710938 -12.578125 3.890625 -12.390625 C 4.066406 -12.210938 4.15625 -11.992188 4.15625 -11.734375 L 4.15625 -10.09375 L 5.765625 -10.09375 C 6.015625 -10.09375 6.21875 -10.007812 6.375 -9.84375 C 6.539062 -9.6875 6.625 -9.488281 6.625 -9.25 C 6.625 -9 6.539062 -8.796875 6.375 -8.640625 C 6.21875 -8.484375 6.015625 -8.40625 5.765625 -8.40625 Z M 4.15625 -8.40625 "/></g></g></g><g fill="#000000" fill-opacity="1"><g transform="translate(261.155584, 129.853076)"><g><path d="M 9.671875 -10.359375 C 9.941406 -10.359375 10.164062 -10.269531 10.34375 -10.09375 C 10.519531 -9.914062 10.609375 -9.6875 10.609375 -9.40625 L 10.609375 -0.9375 C 10.609375 -0.675781 10.519531 -0.453125 10.34375 -0.265625 C 10.164062 -0.0859375 9.941406 0 9.671875 0 C 9.398438 0 9.175781 -0.0859375 9 -0.265625 C 8.832031 -0.441406 8.75 -0.664062 8.75 -0.9375 L 8.75 -1.4375 C 8.414062 -0.988281 7.957031 -0.601562 7.375 -0.28125 C 6.789062 0.03125 6.160156 0.1875 5.484375 0.1875 C 4.597656 0.1875 3.789062 -0.0351562 3.0625 -0.484375 C 2.34375 -0.941406 1.78125 -1.578125 1.375 -2.390625 C 0.96875 -3.203125 0.765625 -4.113281 0.765625 -5.125 C 0.765625 -6.144531 0.96875 -7.0625 1.375 -7.875 C 1.78125 -8.6875 2.34375 -9.316406 3.0625 -9.765625 C 3.78125 -10.222656 4.566406 -10.453125 5.421875 -10.453125 C 6.109375 -10.453125 6.75 -10.304688 7.34375 -10.015625 C 7.9375 -9.734375 8.40625 -9.375 8.75 -8.9375 L 8.75 -9.40625 C 8.75 -9.675781 8.832031 -9.898438 9 -10.078125 C 9.175781 -10.265625 9.398438 -10.359375 9.671875 -10.359375 Z M 5.6875 -1.515625 C 6.300781 -1.515625 6.84375 -1.671875 7.3125 -1.984375 C 7.789062 -2.296875 8.160156 -2.722656 8.421875 -3.265625 C 8.691406 -3.816406 8.828125 -4.4375 8.828125 -5.125 C 8.828125 -5.800781 8.691406 -6.410156 8.421875 -6.953125 C 8.160156 -7.503906 7.789062 -7.9375 7.3125 -8.25 C 6.84375 -8.570312 6.300781 -8.734375 5.6875 -8.734375 C 5.082031 -8.734375 4.539062 -8.578125 4.0625 -8.265625 C 3.59375 -7.953125 3.222656 -7.519531 2.953125 -6.96875 C 2.679688 -6.425781 2.546875 -5.8125 2.546875 -5.125 C 2.546875 -4.4375 2.679688 -3.816406 2.953125 -3.265625 C 3.222656 -2.722656 3.59375 -2.296875 4.0625 -1.984375 C 4.539062 -1.671875 5.082031 -1.515625 5.6875 -1.515625 Z M 5.6875 -1.515625 "/></g></g></g><g fill="#000000" fill-opacity="1"><g transform="translate(285.846235, 129.853076)"><g><path d="M 3.390625 -0.9375 C 3.390625 -0.675781 3.296875 -0.453125 3.109375 -0.265625 C 2.929688 -0.0859375 2.710938 0 2.453125 0 C 2.191406 0 1.972656 -0.0859375 1.796875 -0.265625 C 1.628906 -0.453125 1.546875 -0.675781 1.546875 -0.9375 L 1.546875 -13.5 C 1.546875 -13.757812 1.632812 -13.976562 1.8125 -14.15625 C 2 -14.34375 2.21875 -14.4375 2.46875 -14.4375 C 2.726562 -14.4375 2.945312 -14.34375 3.125 -14.15625 C 3.300781 -13.976562 3.390625 -13.757812 3.390625 -13.5 Z M 3.390625 -0.9375 "/></g></g></g><g fill="#000000" fill-opacity="1"><g transform="translate(303.498576, 129.853076)"><g><path d="M 10.359375 -5.5 C 10.335938 -5.257812 10.234375 -5.054688 10.046875 -4.890625 C 9.867188 -4.734375 9.660156 -4.65625 9.421875 -4.65625 L 2.546875 -4.65625 C 2.640625 -3.707031 3 -2.945312 3.625 -2.375 C 4.257812 -1.800781 5.035156 -1.515625 5.953125 -1.515625 C 6.578125 -1.515625 7.082031 -1.601562 7.46875 -1.78125 C 7.851562 -1.96875 8.195312 -2.207031 8.5 -2.5 C 8.695312 -2.613281 8.882812 -2.671875 9.0625 -2.671875 C 9.289062 -2.671875 9.476562 -2.59375 9.625 -2.4375 C 9.769531 -2.28125 9.84375 -2.097656 9.84375 -1.890625 C 9.84375 -1.617188 9.710938 -1.375 9.453125 -1.15625 C 9.078125 -0.769531 8.578125 -0.445312 7.953125 -0.1875 C 7.328125 0.0625 6.691406 0.1875 6.046875 0.1875 C 4.992188 0.1875 4.066406 -0.03125 3.265625 -0.46875 C 2.460938 -0.90625 1.84375 -1.519531 1.40625 -2.3125 C 0.976562 -3.113281 0.765625 -4.015625 0.765625 -5.015625 C 0.765625 -6.109375 0.988281 -7.066406 1.4375 -7.890625 C 1.882812 -8.710938 2.472656 -9.34375 3.203125 -9.78125 C 3.941406 -10.226562 4.734375 -10.453125 5.578125 -10.453125 C 6.410156 -10.453125 7.191406 -10.238281 7.921875 -9.8125 C 8.648438 -9.382812 9.234375 -8.789062 9.671875 -8.03125 C 10.109375 -7.28125 10.335938 -6.4375 10.359375 -5.5 Z M 5.578125 -8.734375 C 4.847656 -8.734375 4.21875 -8.523438 3.6875 -8.109375 C 3.15625 -7.703125 2.800781 -7.070312 2.625 -6.21875 L 8.390625 -6.21875 L 8.390625 -6.375 C 8.316406 -7.0625 8.003906 -7.625 7.453125 -8.0625 C 6.898438 -8.507812 6.273438 -8.734375 5.578125 -8.734375 Z M 5.578125 -8.734375 "/></g></g></g><g fill="#000000" fill-opacity="1"><g transform="translate(327.331354, 129.853076)"><g><path d="M 6.59375 -10.453125 C 8.925781 -10.453125 10.09375 -9.046875 10.09375 -6.234375 L 10.09375 -0.9375 C 10.09375 -0.675781 10.003906 -0.453125 9.828125 -0.265625 C 9.660156 -0.0859375 9.441406 0 9.171875 0 C 8.910156 0 8.691406 -0.0859375 8.515625 -0.265625 C 8.335938 -0.453125 8.25 -0.675781 8.25 -0.9375 L 8.25 -6.21875 C 8.25 -6.988281 8.070312 -7.597656 7.71875 -8.046875 C 7.375 -8.503906 6.800781 -8.734375 6 -8.734375 C 5.476562 -8.734375 5.003906 -8.617188 4.578125 -8.390625 C 4.160156 -8.160156 3.832031 -7.851562 3.59375 -7.46875 C 3.351562 -7.09375 3.234375 -6.675781 3.234375 -6.21875 L 3.234375 -0.9375 C 3.234375 -0.675781 3.144531 -0.453125 2.96875 -0.265625 C 2.789062 -0.0859375 2.566406 0 2.296875 0 C 2.023438 0 1.804688 -0.0859375 1.640625 -0.265625 C 1.472656 -0.441406 1.390625 -0.664062 1.390625 -0.9375 L 1.390625 -9.28125 C 1.390625 -9.539062 1.472656 -9.757812 1.640625 -9.9375 C 1.816406 -10.125 2.035156 -10.21875 2.296875 -10.21875 C 2.566406 -10.21875 2.789062 -10.125 2.96875 -9.9375 C 3.144531 -9.757812 3.234375 -9.539062 3.234375 -9.28125 L 3.234375 -8.59375 C 3.578125 -9.113281 4.050781 -9.550781 4.65625 -9.90625 C 5.257812 -10.269531 5.90625 -10.453125 6.59375 -10.453125 Z M 6.59375 -10.453125 "/></g></g></g><g fill="#000000" fill-opacity="1"><g transform="translate(351.534574, 129.853076)"><g><path d="M 4.15625 -8.40625 L 4.15625 -2.59375 C 4.15625 -1.945312 4.445312 -1.625 5.03125 -1.625 C 5.125 -1.625 5.25 -1.644531 5.40625 -1.6875 C 5.5625 -1.726562 5.679688 -1.75 5.765625 -1.75 C 5.941406 -1.75 6.085938 -1.675781 6.203125 -1.53125 C 6.316406 -1.394531 6.375 -1.21875 6.375 -1 C 6.375 -0.71875 6.21875 -0.476562 5.90625 -0.28125 C 5.59375 -0.09375 5.242188 0 4.859375 0 C 4.429688 0 4.035156 -0.0390625 3.671875 -0.125 C 3.316406 -0.21875 3 -0.453125 2.71875 -0.828125 C 2.4375 -1.203125 2.296875 -1.765625 2.296875 -2.515625 L 2.296875 -8.40625 L 1.171875 -8.40625 C 0.921875 -8.40625 0.710938 -8.484375 0.546875 -8.640625 C 0.390625 -8.804688 0.3125 -9.015625 0.3125 -9.265625 C 0.3125 -9.515625 0.390625 -9.710938 0.546875 -9.859375 C 0.710938 -10.015625 0.921875 -10.09375 1.171875 -10.09375 L 2.296875 -10.09375 L 2.296875 -11.734375 C 2.296875 -11.992188 2.382812 -12.210938 2.5625 -12.390625 C 2.738281 -12.578125 2.960938 -12.671875 3.234375 -12.671875 C 3.492188 -12.671875 3.710938 -12.578125 3.890625 -12.390625 C 4.066406 -12.210938 4.15625 -11.992188 4.15625 -11.734375 L 4.15625 -10.09375 L 5.765625 -10.09375 C 6.015625 -10.09375 6.21875 -10.007812 6.375 -9.84375 C 6.539062 -9.6875 6.625 -9.488281 6.625 -9.25 C 6.625 -9 6.539062 -8.796875 6.375 -8.640625 C 6.21875 -8.484375 6.015625 -8.40625 5.765625 -8.40625 Z M 4.15625 -8.40625 "/></g></g></g></svg>